<svg version="1.2" xmlns="http://www.w3.org/2000/svg" viewBox="0 0 248 200" width="248" height="200"><defs><clipPath clipPathUnits="userSpaceOnUse" id="cp1"><path d="m133 19.07h53.89v100.93h-53.89z"/></clipPath></defs><style>.a{fill:#242424}.b{fill:#e32128}.c{fill:#272727}</style><path class="a" d="m44.8 163.4l-7-12.4h-5v12.4h-7.9v-36.3h14.6q3.7 0 6.5 1.6 2.8 1.6 4.5 4.2 1.7 2.7 1.7 6.3 0 3.5-1.8 6.2-1.8 2.8-4.8 4.3l8 13.7zm-12-29v9.4h6.2q2.4 0 3.8-1.4 1.4-1.3 1.4-3.3 0-2.1-1.4-3.4-1.4-1.3-3.8-1.3z"/><path class="a" d="m82.8 149.3q0 1.1-0.2 2.2h-21.1q0.4 2.9 2.3 4.4 1.8 1.5 4.5 1.5 2 0 3.5-0.8 1.6-0.9 2.4-2.4h8q-1.6 4.6-5.3 7.3-3.7 2.7-8.6 2.7-4.1 0-7.4-2-3.3-1.9-5.2-5.3-1.9-3.3-1.9-7.5 0-4.2 1.9-7.5 1.9-3.4 5.2-5.3 3.3-2 7.4-2 4.3 0 7.6 2 3.2 2 5 5.3 1.9 3.4 1.9 7.4zm-14.5-8.2q-2.5 0-4.3 1.4-1.7 1.4-2.3 3.8h13.5q-1.7-5.2-6.9-5.2z"/><path class="a" d="m101.1 134.8q4.8 0 7.6 3.1 2.7 3.2 2.7 8.6v16.9h-7.5v-15.8q0-6.2-4.9-6.2-2.9 0-4.6 1.9-1.7 2-1.7 5.4v14.7h-7.5v-28h5.2l1.5 3.5q1.5-1.9 3.9-3 2.5-1.1 5.3-1.1z"/><path class="a" d="m129.1 156.6h3.4v6.8h-5.3q-4.6 0-7.3-2.7-2.7-2.7-2.7-7.3v-11.9h-5.1v-1.6l11.1-11.8h1.4v7.3h7.7v6.1h-7.5v10.9q0 2 1.1 3.1 1.1 1.1 3.2 1.1z"/><path fill-rule="evenodd" class="b" d="m126.8 27.6q-0.1 0.7-0.1 1.4v4.1q-1.4 0-2.7 0c-7.9 0-16.4 0.3-23.6 0.8-2.7 0.2-5.2 1.6-6.9 4.3-3.6 5.9-6.8 11.4-8.8 17.5 0 0 22.5 2.2 39.3 2.2 1 0 2.2 0 3.3 0 1.8 5.7 6.9 9.8 12.9 11.2v6.3h-37.2c-1.8 0-2.2 2-1.4 4 1.7 4.2 6.2 7.1 10.7 7.1h23.3c1.8 0 3.5-0.5 5.1-1.3 0.8 2.2 2.3 4.3 2.9 4.8v1.1c-1.9 1.9-3.3 4.5-3.3 7.2v5.3h-49v9.4c0 1.9-1.6 3.5-3.5 3.5h-9.8c-1.9 0-3.5-1.6-3.5-3.5v-9.8c-2.8-1.2-5.3-4.1-5.3-7.7v-21c0-2.6 1.1-5.4 2.5-8.2l-1.8-0.4c-4.8-1.1-5.8-2.7-6.7-5.9-0.8-3 1.1-5.4 4.1-5.4h11c2.4-6.8 5.2-13.6 9.6-20 1.9-2.8 4.5-5.2 8.7-5.8 8.9-1.2 18.2-1.2 27.4-1.2q1.4 0 2.8 0zm-50.6 47.6c-0.8 2.3-1.7 6.9 2.5 8.5 3.4 1.2 10.5 2.1 14.3 2.7 3.7 0.5 4.6-1.6 3.3-4.9-2.3-6-7.7-7.2-12.7-8.1q-1.9-0.3-3.2-0.3c-2.7 0-3.8 0.8-4.2 2.1z"/><g clip-path="url(#cp1)"><path class="b" d="m186.7 29c0-5.5-4.4-9.9-9.8-9.9h-33.3c-5.5 0-9.9 4.4-9.9 9.9v24.6c0 5.4 4.4 9.8 9.9 9.8h3.7v19.3c0 1.1 0.4 1.6 1 2.1l3.3 2.9c1.5 1.3 1.4 3.9 0 5.3l-3.3 3.3c-0.7 0.7-1 1.1-1 2v8.9c-0.1 1 0.2 2 0.8 2.8 13.8 13.1 12.1 12.2 23.8 0.6 0.9-0.9 1.2-2 1.3-3.2v-44h3.7c5.4 0 9.8-4.4 9.8-9.8zm-14.8 2v2.6c0 1.3-1.1 2.4-2.5 2.4h-18.4c-1.3 0-2.4-1.1-2.4-2.4v-2.6c0-1.4 1.1-2.5 2.4-2.5h18.4c1.4 0 2.5 1.1 2.5 2.5z"/></g><path class="a" d="m159.9 164.4q-4 0-7.4-1.3-3.4-1.4-5.9-3.9-2.5-2.5-3.9-5.9-1.4-3.4-1.4-7.5 0-4.1 1.4-7.5 1.4-3.5 3.9-6 2.5-2.5 5.9-3.9 3.4-1.3 7.4-1.3 4.2 0 7.7 1.6 3.5 1.5 5.9 4.4 2.5 2.9 3.5 6.8h-4.6q-1.4-3.9-4.7-6.1-3.4-2.3-7.8-2.3-4 0-7.2 1.8-3.2 1.9-4.9 5.1-1.8 3.2-1.8 7.4 0 4.2 1.8 7.4 1.7 3.2 4.9 5 3.2 1.8 7.2 1.8 4.6 0 7.9-2.3 3.4-2.4 4.8-6.6h4.6q-1 4.1-3.5 7.1-2.5 3-6 4.6-3.6 1.6-7.8 1.6z"/><path class="a" d="m204.3 135.9h3.5v28h-3.6l-0.5-4.3q-1.9 2.3-4.7 3.6-2.9 1.3-6.3 1.3-4.1 0-7.4-1.9-3.3-1.9-5.1-5.2-1.9-3.3-1.9-7.5 0-4.2 1.9-7.5 1.8-3.3 5.1-5.2 3.3-1.9 7.4-1.9 3.5 0 6.3 1.3 2.8 1.3 4.7 3.6zm-11.2 24.4q3 0 5.3-1.4 2.3-1.3 3.6-3.7 1.3-2.3 1.4-5.3-0.1-2.9-1.4-5.3-1.3-2.4-3.6-3.7-2.3-1.3-5.3-1.3-3 0-5.3 1.3-2.3 1.4-3.7 3.7-1.3 2.4-1.3 5.3 0 3 1.3 5.3 1.4 2.3 3.7 3.7 2.3 1.4 5.3 1.4z"/><path class="a" d="m226.5 135.8h2.5v4.2h-2.9q-3.8 0-5.9 2.3-2.1 2.3-2.1 6.4v15.2h-4.4v-28h3.1l0.8 4.3q1.5-2.1 3.7-3.3 2.2-1.1 5.2-1.1z"/><path class="c" d="m76.5 184.9q-1 0-2-0.3-0.9-0.3-1.4-0.9l0.4-0.7q0.5 0.5 1.3 0.8 0.8 0.3 1.7 0.3 1.2 0 1.8-0.4 0.6-0.5 0.6-1.2 0-0.6-0.3-0.9-0.4-0.3-0.8-0.5-0.5-0.2-1.4-0.4-1-0.2-1.6-0.5-0.6-0.2-1-0.7-0.5-0.5-0.5-1.3 0-0.7 0.4-1.3 0.3-0.5 1.1-0.9 0.8-0.3 1.9-0.3 0.7 0 1.5 0.2 0.7 0.2 1.3 0.6l-0.3 0.8q-0.6-0.4-1.3-0.6-0.6-0.2-1.2-0.2-1.2 0-1.8 0.5-0.6 0.4-0.6 1.1 0 0.6 0.3 0.9 0.3 0.3 0.8 0.5 0.5 0.2 1.4 0.4 1 0.3 1.6 0.5 0.6 0.2 1 0.7 0.5 0.5 0.5 1.3 0 0.7-0.4 1.3-0.4 0.6-1.1 0.9-0.8 0.3-1.9 0.3z"/><path class="c" d="m96.2 184v0.8h-6.4v-9h6.2v0.8h-5.3v3.2h4.7v0.8h-4.7v3.4z"/><path class="c" d="m112.5 184.8l-2.1-2.9q-0.3 0.1-0.7 0.1h-2.4v2.8h-1v-9h3.4q1.7 0 2.7 0.8 1 0.8 1 2.3 0 1-0.6 1.8-0.5 0.7-1.5 1l2.2 3.1zm-2.8-3.7q1.3 0 2.1-0.5 0.7-0.7 0.7-1.7 0-1.1-0.7-1.7-0.8-0.6-2.1-0.6h-2.4v4.5z"/><path class="c" d="m131 175.8l-4 9h-0.9l-4.1-9h1.1l3.5 7.8 3.5-7.8z"/><path class="c" d="m140.4 175.8h0.9v9h-0.9z"/><path class="c" d="m156.1 184.9q-1.4 0-2.5-0.6-1-0.6-1.7-1.6-0.6-1.1-0.6-2.4 0-1.3 0.6-2.4 0.7-1 1.7-1.6 1.1-0.6 2.5-0.6 1 0 1.8 0.3 0.9 0.4 1.5 1l-0.6 0.6q-1.1-1.1-2.7-1.1-1.1 0-2 0.5-0.8 0.5-1.3 1.4-0.5 0.8-0.5 1.9 0 1.1 0.5 1.9 0.5 0.9 1.3 1.4 0.9 0.5 2 0.5 1.6 0 2.7-1.1l0.6 0.6q-0.6 0.6-1.5 1-0.8 0.3-1.8 0.3z"/></svg>